Coordinates
version=1
nRows=7
nColumns=40
inDegrees=yes

Units are S.I. units (second, meters, Newtons, ...)
If the header above contains a line with 'inDegrees', this indicates whether rotational values are in degrees (yes) or radians (no).

endheader
time	pelvis_tilt	pelvis_list	pelvis_rotation	pelvis_tx	pelvis_ty	pelvis_tz	hip_flexion_r	hip_adduction_r	hip_rotation_r	knee_angle_r	knee_angle_r_beta	ankle_angle_r	subtalar_angle_r	mtp_angle_r	hip_flexion_l	hip_adduction_l	hip_rotation_l	knee_angle_l	knee_angle_l_beta	ankle_angle_l	subtalar_angle_l	mtp_angle_l	lumbar_extension	lumbar_bending	lumbar_rotation	arm_flex_r	arm_add_r	arm_rot_r	elbow_flex_r	pro_sup_r	wrist_flex_r	wrist_dev_r	arm_flex_l	arm_add_l	arm_rot_l	elbow_flex_l	pro_sup_l	wrist_flex_l	wrist_dev_l
      5.15000000	     15.14314118	      3.50275436	   -175.60116589	      0.40119727	      0.73562343	     -1.00446504	     44.08169547	    -41.39294860	    -35.43070915	     36.25049398	      0.63269048	    -15.40156310	      0.00000000	      0.00000000	     49.19188838	    -39.74098050	    -26.70667765	     24.35421907	      0.42506131	    -24.89746971	      0.00000000	      0.00000000	    -51.73118153	      7.61397111	      1.32686826	     56.51416369	     -5.80979424	     33.68600796	      1.24010495	     73.36047172	      0.00000000	      0.00000000	     45.77860549	     -1.99256419	     40.17769371	      0.89175907	      3.86711621	      0.00000000	      0.00000000
      5.15500000	     15.19539621	      3.53151874	   -175.79200905	      0.40120390	      0.73631292	     -1.00458333	     44.11559118	    -41.16447136	    -35.41548155	     36.03362662	      0.62890543	    -15.52079975	      0.00000000	      0.00000000	     48.95827949	    -39.80560825	    -26.98484200	     24.07032595	      0.42010644	    -24.96210916	      0.00000000	      0.00000000	    -51.45458193	      7.47007189	      1.47952937	     56.31085830	     -5.97152779	     33.71565131	      1.24116877	     75.76300832	      0.00000000	      0.00000000	     45.33532399	     -2.04270263	     42.05446467	      0.88192153	      3.98212890	      0.00000000	      0.00000000
      5.16000000	     15.30026689	      3.51102961	   -175.84715551	      0.40091644	      0.73721958	     -1.00423562	     44.03781431	    -41.04457468	    -35.51191598	     35.67426665	      0.62263341	    -15.84722417	      0.00000000	      0.00000000	     48.70871806	    -39.64308381	    -27.17346054	     23.64619988	      0.41270404	    -25.01335664	      0.00000000	      0.00000000	    -51.12968069	      7.43432705	      1.48797875	     56.08212998	     -6.04751439	     33.38719675	      1.24712050	     75.80243265	      0.00000000	      0.00000000	     44.99049378	     -2.01998583	     42.97424742	      0.87499385	      4.03512574	      0.00000000	      0.00000000
      5.16500000	     15.35841816	      3.56499877	   -175.92090835	      0.40099330	      0.73787652	     -1.00404472	     43.97731279	    -40.91039646	    -35.66041190	     35.46689153	      0.61901403	    -16.04102694	      0.00000000	      0.00000000	     48.59040673	    -39.61045391	    -27.20759453	     23.36573507	      0.40780901	    -25.17621071	      0.00000000	      0.00000000	    -50.83722718	      7.41512269	      1.51135860	     55.86881027	     -6.06647422	     33.64639090	      1.25797989	     75.29344470	      0.00000000	      0.00000000	     44.89586100	     -2.00101689	     42.39645041	      0.88078552	      3.91029197	      0.00000000	      0.00000000
      5.17000000	     15.50275685	      3.60504499	   -175.99012390	      0.40103143	      0.73855052	     -1.00377720	     43.96100375	    -40.77146802	    -35.83062025	     35.17871731	      0.61398444	    -16.23206027	      0.00000000	      0.00000000	     48.50079408	    -39.52061268	    -27.28477480	     23.01206848	      0.40163636	    -25.28225371	      0.00000000	      0.00000000	    -50.46125683	      7.44236391	      1.49511460	     55.64123293	     -6.11587828	     34.52183121	      1.25690683	     76.04485990	      0.00000000	      0.00000000	     44.53312910	     -2.06149585	     43.24570545	      0.88084010	      3.95190402	      0.00000000	      0.00000000
      5.17500000	     15.53639712	      3.55653684	   -176.07730733	      0.40089768	      0.73946047	     -1.00335759	     43.85185108	    -40.65491378	    -35.85583432	     34.83725085	      0.60802473	    -16.42382895	      0.00000000	      0.00000000	     48.18511980	    -39.39224689	    -27.55638784	     22.66564823	      0.39559019	    -25.33504066	      0.00000000	      0.00000000	    -50.18845683	      7.31525819	      1.55538061	     55.38380604	     -6.24935364	     34.53728158	      1.26037491	     76.08309689	      0.00000000	      0.00000000	     44.20579463	     -2.02742594	     44.62288556	      0.86715717	      3.94658737	      0.00000000	      0.00000000
      5.18000000	     15.72438547	      3.49345601	   -176.23990027	      0.40091188	      0.74004913	     -1.00325811	     43.97399395	    -40.53508607	    -35.90188186	     34.53372536	      0.60272721	    -16.57963613	      0.00000000	      0.00000000	     48.00642765	    -39.29788404	    -27.81817484	     22.29227195	      0.38907354	    -25.46407273	      0.00000000	      0.00000000	    -49.76789353	      7.13951763	      1.53225891	     55.11051456	     -6.12136277	     34.65107435	      1.26040494	     73.18392728	      0.00000000	      0.00000000	     44.06751781	     -2.02193789	     44.13811499	      0.87780277	      3.79257166	      0.00000000	      0.00000000
